<?xml version="1.0" standalone="no"?>
<!DOCTYPE svg PUBLIC "-//W3C//DTD SVG 20010904//EN"
 "http://www.w3.org/TR/2001/REC-SVG-20010904/DTD/svg10.dtd">
<svg version="1.0" xmlns="http://www.w3.org/2000/svg"
 width="246.000000pt" height="283.000000pt" viewBox="0 0 246.000000 283.000000"
 preserveAspectRatio="xMidYMid meet">

<g transform="translate(0.000000,283.000000) scale(0.100000,-0.100000)"
fill="#000000" stroke="none">
<path d="M1270 2671 c-24 -7 -24 -7 -5 -15 l20 -8 -20 -8 c-14 -6 -3 -9 37 -9
47 -1 56 2 54 16 -4 27 -40 37 -86 24z"/>
<path d="M1164 2615 c-18 -14 -18 -14 7 -15 15 0 32 7 39 15 10 12 9 15 -7 15
-10 0 -28 -7 -39 -15z"/>
<path d="M1384 2615 c13 -10 42 -15 80 -15 57 1 60 2 36 15 -18 9 -27 10 -32
2 -5 -8 -14 -8 -33 1 -14 7 -36 12 -48 12 -21 -1 -22 -1 -3 -15z"/>
<path d="M1045 2580 c-4 -14 -19 -22 -46 -26 -22 -4 -38 -9 -35 -11 13 -13 83
10 99 33 15 20 15 24 3 24 -8 0 -18 -9 -21 -20z"/>
<path d="M1530 2593 c0 -5 19 -16 42 -26 31 -13 39 -20 31 -28 -15 -15 60 -69
95 -69 12 0 22 -4 22 -10 0 -5 7 -10 15 -10 8 0 15 -4 15 -9 0 -5 9 -11 20
-14 13 -3 20 0 20 9 0 8 -34 31 -75 51 -57 28 -72 40 -64 50 8 9 2 17 -28 30
-21 10 -39 21 -41 26 -2 4 -15 7 -28 7 -13 0 -24 -3 -24 -7z"/>
<path d="M883 2527 c-4 -7 -19 -18 -33 -24 -23 -11 -23 -12 -4 -12 32 -1 82
19 88 35 7 18 -40 20 -51 1z"/>
<path d="M900 2480 c0 -6 -18 -17 -40 -26 -45 -18 -52 -34 -15 -34 14 0 25 4
25 9 0 5 15 15 34 21 19 6 40 18 46 26 10 12 7 14 -19 14 -17 0 -31 -5 -31
-10z"/>
<path d="M1806 2465 c-3 -9 0 -15 8 -15 8 0 16 -5 18 -11 2 -5 24 -12 48 -14
25 -3 36 -2 25 2 -11 3 -31 13 -45 23 -43 29 -48 30 -54 15z"/>
<path d="M1272 2426 c10 -7 15 -16 11 -19 -3 -4 6 -7 20 -7 15 0 27 4 27 8 0
16 -25 32 -49 32 -24 -1 -24 -2 -9 -14z"/>
<path d="M675 2413 c-10 -3 -30 -12 -43 -21 -23 -15 -23 -16 -6 -23 11 -4 33
-7 49 -7 17 0 22 2 13 5 -44 11 -9 33 52 33 21 0 42 5 45 10 6 10 -72 12 -110
3z"/>
<path d="M1730 2411 c0 -4 14 -15 30 -24 26 -16 30 -16 30 -3 0 22 23 20 62
-4 18 -11 44 -20 58 -20 22 0 19 4 -20 28 -34 20 -59 27 -102 28 -32 1 -58 -2
-58 -5z"/>
<path d="M716 2345 c-26 -19 -6 -19 30 0 23 12 25 15 9 15 -11 -1 -29 -7 -39
-15z"/>
<path d="M1323 2353 c9 -2 23 -2 30 0 6 3 -1 5 -18 5 -16 0 -22 -2 -12 -5z"/>
<path d="M1759 2349 c16 -6 28 -6 35 1 7 7 -1 10 -24 9 -33 0 -34 -1 -11 -10z"/>
<path d="M1855 2340 c22 -11 44 -19 48 -20 5 0 15 -7 23 -15 9 -8 27 -15 41
-15 l26 0 -26 20 c-14 11 -31 20 -39 20 -7 0 -22 7 -32 15 -11 8 -34 15 -50
15 l-31 -1 40 -19z"/>
<path d="M685 2312 c-36 -12 -44 -17 -28 -20 30 -5 105 17 98 28 -7 12 -7 12
-70 -8z"/>
<path d="M228 2283 c6 -2 18 -2 25 0 6 3 1 5 -13 5 -14 0 -19 -2 -12 -5z"/>
<path d="M374 2279 c-3 -5 1 -9 8 -9 9 0 9 -3 -2 -10 -12 -8 -11 -10 7 -10 12
0 25 4 28 10 3 5 20 10 38 9 18 0 48 4 67 9 30 8 22 10 -53 10 -48 0 -90 -4
-93 -9z"/>
<path d="M2055 2270 c22 -10 54 -19 70 -19 28 0 27 1 -15 19 -25 10 -56 19
-70 19 -21 0 -19 -3 15 -19z"/>
<path d="M255 2240 c3 -5 12 -7 20 -3 21 7 19 13 -6 13 -11 0 -18 -4 -14 -10z"/>
<path d="M395 2236 c-17 -12 -14 -13 23 -13 23 0 47 6 53 13 9 11 5 14 -23 14
-19 0 -43 -6 -53 -14z"/>
<path d="M299 2203 c-12 -15 -12 -16 4 -10 10 4 27 7 38 7 10 0 19 5 19 10 0
16 -47 11 -61 -7z"/>
<path d="M498 2198 c-2 -6 -29 -13 -60 -16 -36 -3 -59 -10 -62 -18 -4 -11 7
-14 49 -14 30 0 55 5 55 10 0 6 7 10 15 10 8 0 15 2 15 4 0 2 3 11 6 20 3 9 2
16 -4 16 -6 0 -12 -5 -14 -12z"/>
<path d="M1256 2185 c-4 -11 2 -15 20 -15 14 0 23 4 20 9 -4 5 0 12 6 14 7 3
1 6 -13 6 -15 1 -29 -6 -33 -14z"/>
<path d="M2192 2181 c-11 -6 -10 -10 0 -19 11 -8 17 -6 26 9 10 15 10 19 0 19
-7 0 -19 -4 -26 -9z"/>
<path d="M175 2110 c11 -5 31 -9 45 -9 20 -1 22 1 10 9 -8 5 -28 9 -45 9 -26
0 -27 -2 -10 -9z"/>
<path d="M272 2088 c7 -7 29 -20 48 -29 l35 -16 -34 -8 -33 -7 41 -19 c24 -10
40 -23 36 -29 -4 -6 7 -13 24 -16 17 -4 31 -10 31 -15 0 -5 7 -9 16 -9 8 0 13
-4 10 -9 -3 -5 10 -12 29 -15 19 -4 35 -11 35 -16 0 -6 15 -10 34 -10 19 0 37
-4 41 -9 3 -5 19 -12 35 -16 17 -4 30 -10 30 -15 0 -4 10 -11 23 -15 21 -7 21
-8 -8 -15 -25 -6 -26 -8 -7 -9 13 0 33 -10 45 -21 12 -12 33 -24 46 -27 14 -3
34 -15 46 -25 11 -11 33 -22 48 -25 15 -3 25 -8 23 -11 -7 -6 39 -42 53 -42 6
0 19 -4 29 -9 9 -5 35 -17 58 -26 23 -9 52 -26 65 -38 34 -30 89 -60 97 -53 3
4 -4 13 -16 21 -11 9 -27 21 -34 28 -7 7 -27 20 -45 27 -17 8 -29 18 -27 22 3
4 -6 8 -19 8 -14 0 -48 15 -76 34 -28 19 -61 38 -74 42 -12 4 -29 15 -38 25
-9 11 -24 19 -34 19 -10 0 -32 11 -49 23 -17 13 -38 26 -46 30 -10 3 -6 6 9 6
25 1 25 1 5 19 -11 11 -47 27 -79 37 -33 10 -69 24 -80 32 -11 7 -34 13 -52
13 -18 0 -33 3 -33 8 0 4 -18 18 -39 32 -22 13 -38 27 -35 31 2 4 -10 12 -27
20 -28 11 -30 14 -14 25 15 11 14 14 -14 29 -17 8 -31 20 -31 25 0 6 -14 10
-31 10 -25 0 -28 -2 -17 -12z"/>
<path d="M2080 2091 c0 -5 -8 -12 -17 -14 -10 -3 -4 -5 12 -6 17 0 39 6 49 14
19 14 18 15 -12 15 -18 0 -32 -4 -32 -9z"/>
<path d="M2155 2054 c-18 -14 -18 -14 2 -14 23 0 39 15 26 23 -5 3 -17 -1 -28
-9z"/>
<path d="M1200 2015 c7 -8 21 -15 31 -15 12 0 16 5 13 15 -4 8 -17 15 -31 15
-22 0 -24 -2 -13 -15z"/>
<path d="M2155 2000 c-3 -5 -15 -10 -26 -10 -10 0 -18 -5 -16 -12 1 -6 -16
-22 -38 -34 -27 -16 -34 -24 -21 -24 30 0 116 42 116 57 0 7 5 13 10 13 6 0
10 5 10 10 0 6 -6 10 -14 10 -8 0 -18 -4 -21 -10z"/>
<path d="M1930 1912 c-26 -13 -30 -18 -17 -20 22 -4 77 17 77 29 0 14 -21 10
-60 -9z"/>
<path d="M1825 1880 c-14 -6 -15 -9 -5 -10 12 0 12 -3 -2 -14 -34 -25 -18 -35
22 -14 21 12 37 25 35 29 -3 4 1 10 7 12 7 3 2 5 -12 6 -14 0 -34 -4 -45 -9z"/>
<path d="M1733 1807 c-18 -7 -41 -19 -52 -29 -10 -9 -35 -24 -55 -33 -39 -19
-39 -35 0 -35 14 0 23 4 20 9 -6 8 53 50 119 84 35 19 15 21 -32 4z"/>
<path d="M1195 1770 c3 -5 17 -10 31 -10 14 0 22 4 19 10 -3 6 -17 10 -31 10
-14 0 -22 -4 -19 -10z"/>
<path d="M1553 1703 c9 -2 23 -2 30 0 6 3 -1 5 -18 5 -16 0 -22 -2 -12 -5z"/>
<path d="M1440 1670 c-41 -27 -43 -30 -20 -31 17 0 11 -5 -21 -14 -55 -15 -71
-23 -64 -35 3 -4 -6 -11 -19 -14 -25 -6 -41 -31 -27 -40 5 -3 18 2 29 12 11
10 50 33 86 52 50 26 62 37 54 47 -8 10 -2 17 26 28 20 8 36 17 36 20 0 13
-40 1 -80 -25z"/>
<path d="M1055 1520 c-16 -7 -11 -9 23 -9 47 -1 106 -26 97 -41 -4 -6 -2 -10
4 -10 5 0 16 -3 24 -6 12 -4 14 0 10 16 -9 36 -115 69 -158 50z"/>
<path d="M1355 1495 c-31 -30 -32 -47 -2 -43 12 2 21 7 19 12 -2 4 14 19 35
32 l38 23 -33 1 c-22 0 -41 -8 -57 -25z"/>
<path d="M1047 1384 c-3 -3 -23 -12 -44 -19 l-38 -14 54 -1 c30 0 51 3 48 7
-4 3 1 12 11 19 16 12 16 13 -4 14 -11 0 -23 -3 -27 -6z"/>
<path d="M1433 1383 c9 -2 25 -2 35 0 9 3 1 5 -18 5 -19 0 -27 -2 -17 -5z"/>
<path d="M771 1316 c-19 -7 -30 -15 -25 -19 5 -3 16 -2 24 4 8 5 25 9 38 9 12
0 22 5 22 10 0 13 -16 12 -59 -4z"/>
<path d="M775 1260 c-3 -6 5 -10 19 -10 14 0 28 5 31 10 3 6 -5 10 -19 10 -14
0 -28 -4 -31 -10z"/>
<path d="M1540 1260 c20 -13 40 -13 40 0 0 6 -12 10 -27 10 -22 0 -25 -2 -13
-10z"/>
<path d="M814 1235 c-18 -14 -18 -14 6 -14 14 0 34 6 44 14 19 14 19 15 -5 15
-14 0 -34 -7 -45 -15z"/>
<path d="M1674 1244 c-38 -16 34 -74 89 -74 l32 1 -38 13 c-44 16 -79 44 -71
57 6 10 5 10 -12 3z"/>
<path d="M565 1180 c-3 -5 2 -10 11 -10 16 0 16 -1 -2 -15 -12 -9 -14 -14 -6
-15 23 0 3 -18 -27 -25 -28 -6 -29 -7 -13 -26 9 -10 23 -19 32 -19 12 0 12 2
1 9 -15 10 -12 12 49 42 26 13 30 18 15 19 -15 0 -17 2 -6 9 9 6 10 11 2 15
-6 4 -9 12 -6 17 4 5 -5 9 -19 9 -14 0 -28 -4 -31 -10z"/>
<path d="M1857 1166 c27 -20 64 -25 70 -8 3 8 -6 12 -25 12 -17 0 -39 3 -49 6
-14 5 -13 3 4 -10z"/>
<path d="M2054 1045 c11 -8 27 -15 35 -15 9 0 27 -3 41 -6 14 -3 3 4 -25 16
-58 23 -78 25 -51 5z"/>
<path d="M420 970 c-12 -22 -5 -44 11 -34 5 3 7 9 4 14 -3 5 -1 11 5 15 5 3
10 10 10 16 0 16 -19 10 -30 -11z"/>
<path d="M2192 930 c-10 -17 -10 -21 3 -26 19 -8 20 -6 29 24 9 28 -14 30 -32
2z"/>
<path d="M370 909 c-42 -6 -35 -9 22 -13 9 -1 20 -4 24 -8 12 -12 24 -9 24 6
0 19 -17 23 -70 15z"/>
<path d="M2380 835 l-25 -14 33 -1 c22 0 32 5 32 15 0 18 -8 18 -40 0z"/>
<path d="M118 813 c6 -2 18 -2 25 0 6 3 1 5 -13 5 -14 0 -19 -2 -12 -5z"/>
<path d="M195 798 c22 -6 42 -15 45 -19 4 -5 22 -12 40 -16 32 -6 34 -5 19 9
-18 19 -82 38 -119 37 -19 -1 -15 -4 15 -11z"/>
<path d="M2400 779 c-26 -13 -30 -18 -15 -18 35 -1 65 11 65 25 0 17 -6 17
-50 -7z"/>
<path d="M170 750 c-13 -8 -12 -10 3 -10 10 0 28 -11 41 -25 13 -14 33 -25 45
-25 21 0 22 0 4 25 -10 13 -24 25 -31 25 -7 0 -10 5 -7 10 8 13 -35 13 -55 0z"/>
<path d="M2277 728 c-27 -17 -44 -34 -38 -37 15 -10 0 -27 -34 -38 -25 -9 -27
-12 -12 -18 11 -5 24 -2 35 8 9 8 27 18 40 21 24 8 29 22 10 29 -7 2 -1 8 15
12 15 4 27 14 27 21 0 8 10 19 23 24 20 8 20 9 2 9 -11 1 -42 -13 -68 -31z"/>
<path d="M2145 700 c-19 -8 -19 -9 2 -9 12 -1 25 4 28 9 7 12 -2 12 -30 0z"/>
<path d="M329 666 c23 -14 53 -26 65 -26 17 0 18 -2 6 -10 -8 -5 -10 -10 -4
-10 6 0 21 -9 34 -20 13 -11 28 -20 34 -20 6 0 31 -14 55 -30 24 -17 38 -30
31 -30 -21 0 7 -27 35 -34 14 -4 25 -11 25 -16 0 -16 57 -40 92 -39 l33 2 -37
10 c-21 6 -38 16 -38 24 0 7 -6 13 -14 13 -20 0 -65 39 -46 40 8 1 1 9 -16 18
-17 9 -50 27 -74 40 -23 13 -61 41 -84 62 -32 29 -52 40 -91 45 l-50 6 44 -25z"/>
<path d="M2125 662 c-22 -9 -41 -20 -43 -24 -2 -4 -12 -8 -22 -8 -10 0 -28 -9
-41 -19 -21 -17 -13 -16 52 7 76 27 138 61 109 61 -8 -1 -33 -8 -55 -17z"/>
<path d="M1896 553 c-31 -15 -45 -27 -38 -32 7 -4 -1 -12 -22 -19 -26 -10 -33
-17 -29 -32 4 -16 9 -17 29 -8 13 6 21 14 19 18 -5 8 38 30 63 31 10 0 12 3 5
6 -7 2 -13 8 -13 11 0 9 54 33 94 43 28 6 26 7 -14 7 -28 0 -64 -10 -94 -25z"/>
<path d="M1835 440 c-3 -6 5 -10 19 -10 14 0 28 5 31 10 3 6 -5 10 -19 10 -14
0 -28 -4 -31 -10z"/>
<path d="M782 421 c30 -10 58 -34 58 -49 0 -11 44 -33 142 -69 42 -15 74 -31
72 -35 -2 -4 4 -9 15 -13 11 -3 22 -12 25 -20 3 -8 12 -15 21 -15 15 0 55 -19
65 -31 3 -4 25 -9 50 -12 25 -3 36 -3 25 0 -11 3 -31 14 -44 24 -13 11 -32 19
-42 19 -23 0 -90 40 -84 50 3 4 -7 11 -20 14 -16 4 -23 11 -19 18 4 6 3 8 -4
4 -6 -3 -13 -2 -17 4 -3 5 -14 10 -23 10 -9 0 -42 12 -72 26 -42 19 -51 27
-40 34 9 6 10 10 3 10 -6 0 -18 6 -26 14 -8 8 -36 17 -63 20 -37 4 -42 4 -22
-3z"/>
<path d="M1733 400 c-31 -13 -29 -20 6 -20 16 0 31 6 35 15 6 17 -8 18 -41 5z"/>
<path d="M1743 356 c-42 -15 -51 -25 -33 -36 8 -6 10 -10 4 -10 -6 0 -11 -7
-11 -16 0 -10 8 -14 26 -12 14 2 25 9 24 16 -2 6 3 12 10 13 6 0 3 4 -8 8 -18
7 -17 10 15 30 38 22 25 26 -27 7z"/>
<path d="M1623 273 c9 -2 23 -2 30 0 6 3 -1 5 -18 5 -16 0 -22 -2 -12 -5z"/>
<path d="M1475 260 c-7 -12 12 -12 40 0 18 8 17 9 -7 9 -15 1 -30 -3 -33 -9z"/>
<path d="M1370 235 c0 -19 21 -19 46 0 18 14 17 14 -13 15 -23 0 -33 -5 -33
-15z"/>
<path d="M1320 199 c-34 -17 -34 -18 -9 -19 15 0 32 7 39 15 19 23 9 24 -30 4z"/>
<path d="M1240 105 l25 -14 -30 -1 c-16 -1 -23 -4 -15 -7 13 -6 20 -11 53 -38
37 -32 127 -50 127 -25 0 4 13 13 29 20 19 7 29 19 28 30 -1 17 -27 17 -27 -1
0 -9 -64 -39 -84 -39 -6 0 -26 14 -45 30 -25 22 -29 30 -16 30 14 0 15 3 5 15
-7 8 -27 15 -44 15 l-31 -1 25 -14z"/>
<path d="M1370 103 l-35 -14 50 6 c27 3 54 10 59 15 15 15 -32 10 -74 -7z"/>
</g>
</svg>
